<svg xmlns="http://www.w3.org/2000/svg" viewBox="0 0 244 56" fill="#24364b"><defs><clipPath id="waterline"><rect width="244" height="56" /></clipPath></defs><g clip-path="url(#waterline)"><path d="M243,43L241,43L240,44L235,44L234,45L233,45L232,44L231,45L224,45L223,46L215,46L214,45L215,44L214,43L215,42L221,42L214,42L213,41L213,40L212,39L208,39L207,40L203,40L203,44L205,44L206,45L206,46L205,47L202,47L200,45L201,44L200,44L200,46L199,47L197,47L196,46L193,46L192,47L191,46L190,47L189,47L188,46L187,46L186,45L186,36L187,35L186,34L186,33L181,33L180,34L179,33L179,32L180,31L187,31L182,31L181,30L180,30L179,29L179,27L177,27L176,26L175,26L174,27L175,28L175,29L174,30L174,41L173,42L173,45L172,46L171,45L171,46L170,47L162,47L160,45L161,44L161,43L160,43L158,41L158,35L157,34L158,33L157,32L157,31L156,30L154,30L153,31L151,31L151,32L150,33L150,39L151,40L151,42L150,43L149,43L150,44L150,45L149,46L148,45L146,45L145,44L143,44L142,43L143,42L146,42L139,42L138,41L136,41L135,42L134,42L133,43L132,43L131,42L131,41L132,40L127,40L126,39L126,34L127,33L126,34L125,33L123,33L122,34L120,34L120,38L121,39L121,44L120,45L119,45L118,44L119,43L119,42L117,40L117,41L116,42L115,42L114,41L114,40L115,39L115,38L114,37L114,41L113,42L112,42L111,41L111,37L111,44L110,45L108,45L108,46L110,48L109,49L108,49L107,48L105,48L104,47L104,46L96,46L95,47L95,48L94,49L93,48L92,48L92,49L96,49L97,50L97,51L96,52L93,52L92,51L91,52L90,51L90,45L92,43L90,43L89,42L89,40L88,41L88,42L87,43L88,44L87,45L87,46L86,47L83,47L82,46L83,45L83,44L82,44L81,45L81,46L80,47L79,46L79,44L80,43L80,38L80,42L78,44L77,43L77,41L77,43L78,44L78,46L77,47L76,47L75,46L75,47L74,48L73,47L67,47L66,46L56,46L56,50L59,50L60,51L59,52L51,52L50,51L51,50L53,50L53,46L47,46L46,45L44,45L42,47L35,47L35,48L36,47L41,47L42,48L42,51L41,52L26,52L25,51L25,49L24,48L23,49L23,51L22,52L21,52L20,51L21,50L21,49L20,48L21,47L22,47L19,47L18,48L19,49L19,50L20,51L19,52L6,52L5,51L4,52L3,51L2,52L2,55L1,56L1,57L2,58L29,58L30,57L137,57L138,56L140,56L141,57L145,57L146,56L147,57L158,57L159,56L164,56L165,57L167,57L168,56L196,56L197,57L198,56L240,56L240,55L241,54L241,50L242,49L242,46L243,45Z" /><path d="M160 4L167 52M65 25L66 54" fill="none" stroke="#24364b" stroke-width="0.8" /></g></svg>
